<mxfile host="Electron" agent="Mozilla/5.0 (Windows NT 10.0; Win64; x64) AppleWebKit/537.36 (KHTML, like Gecko) draw.io/26.2.2 Chrome/134.0.6998.178 Electron/35.1.2 Safari/537.36" version="26.2.2">
  <diagram name="第 1 页" id="HLuYiN2mjGFSt4qJvR9W">
    <mxGraphModel dx="1030" dy="645" grid="1" gridSize="10" guides="1" tooltips="1" connect="1" arrows="1" fold="1" page="1" pageScale="1" pageWidth="2336" pageHeight="1654" math="0" shadow="0">
      <root>
        <mxCell id="0" />
        <mxCell id="1" parent="0" />
        <mxCell id="70oapY4QyX1JeO2lNhkM-1" value="请求A" style="shape=umlLifeline;perimeter=lifelinePerimeter;whiteSpace=wrap;html=1;container=1;dropTarget=0;collapsible=0;recursiveResize=0;outlineConnect=0;portConstraint=eastwest;newEdgeStyle={&quot;curved&quot;:0,&quot;rounded&quot;:0};" parent="1" vertex="1">
          <mxGeometry x="130" y="110" width="100" height="510" as="geometry" />
        </mxCell>
        <mxCell id="70oapY4QyX1JeO2lNhkM-2" value="请求B" style="shape=umlLifeline;perimeter=lifelinePerimeter;whiteSpace=wrap;html=1;container=1;dropTarget=0;collapsible=0;recursiveResize=0;outlineConnect=0;portConstraint=eastwest;newEdgeStyle={&quot;curved&quot;:0,&quot;rounded&quot;:0};" parent="1" vertex="1">
          <mxGeometry x="370" y="110" width="100" height="510" as="geometry" />
        </mxCell>
        <mxCell id="70oapY4QyX1JeO2lNhkM-3" value="redis" style="shape=umlLifeline;perimeter=lifelinePerimeter;whiteSpace=wrap;html=1;container=1;dropTarget=0;collapsible=0;recursiveResize=0;outlineConnect=0;portConstraint=eastwest;newEdgeStyle={&quot;curved&quot;:0,&quot;rounded&quot;:0};" parent="1" vertex="1">
          <mxGeometry x="600" y="110" width="100" height="510" as="geometry" />
        </mxCell>
        <mxCell id="70oapY4QyX1JeO2lNhkM-4" value="数据库" style="shape=umlLifeline;perimeter=lifelinePerimeter;whiteSpace=wrap;html=1;container=1;dropTarget=0;collapsible=0;recursiveResize=0;outlineConnect=0;portConstraint=eastwest;newEdgeStyle={&quot;curved&quot;:0,&quot;rounded&quot;:0};" parent="1" vertex="1">
          <mxGeometry x="840" y="110" width="100" height="510" as="geometry" />
        </mxCell>
        <mxCell id="70oapY4QyX1JeO2lNhkM-15" value="2、第一次查询缓存命中X=10" style="html=1;verticalAlign=bottom;startArrow=oval;startFill=1;endArrow=block;startSize=8;curved=0;rounded=0;fillColor=#d80073;strokeColor=#A50040;" parent="1" target="70oapY4QyX1JeO2lNhkM-3" edge="1">
          <mxGeometry width="60" relative="1" as="geometry">
            <mxPoint x="420" y="310" as="sourcePoint" />
            <mxPoint x="480" y="310" as="targetPoint" />
          </mxGeometry>
        </mxCell>
        <mxCell id="70oapY4QyX1JeO2lNhkM-17" value="1、更新数据库X=20" style="html=1;verticalAlign=bottom;startArrow=oval;startFill=1;endArrow=block;startSize=8;curved=0;rounded=0;" parent="1" target="70oapY4QyX1JeO2lNhkM-4" edge="1">
          <mxGeometry x="0.6913" y="20" width="60" relative="1" as="geometry">
            <mxPoint x="180" y="240" as="sourcePoint" />
            <mxPoint x="240" y="240" as="targetPoint" />
            <mxPoint as="offset" />
          </mxGeometry>
        </mxCell>
        <mxCell id="70oapY4QyX1JeO2lNhkM-18" value="3、删除缓存" style="html=1;verticalAlign=bottom;startArrow=oval;startFill=1;endArrow=block;startSize=8;curved=0;rounded=0;" parent="1" target="70oapY4QyX1JeO2lNhkM-3" edge="1">
          <mxGeometry x="0.5335" y="10" width="60" relative="1" as="geometry">
            <mxPoint x="180" y="380" as="sourcePoint" />
            <mxPoint x="889.5" y="380" as="targetPoint" />
            <mxPoint as="offset" />
          </mxGeometry>
        </mxCell>
        <mxCell id="70oapY4QyX1JeO2lNhkM-19" value="4、第二次查询未命中" style="html=1;verticalAlign=bottom;startArrow=oval;startFill=1;endArrow=block;startSize=8;curved=0;rounded=0;fillColor=#d80073;strokeColor=#A50040;" parent="1" target="70oapY4QyX1JeO2lNhkM-3" edge="1">
          <mxGeometry width="60" relative="1" as="geometry">
            <mxPoint x="420" y="460" as="sourcePoint" />
            <mxPoint x="480" y="460" as="targetPoint" />
          </mxGeometry>
        </mxCell>
        <mxCell id="70oapY4QyX1JeO2lNhkM-20" value="5、第二次查询数据库X=20" style="html=1;verticalAlign=bottom;startArrow=oval;startFill=1;endArrow=block;startSize=8;curved=0;rounded=0;fillColor=#d80073;strokeColor=#A50040;" parent="1" edge="1">
          <mxGeometry x="0.5335" y="10" width="60" relative="1" as="geometry">
            <mxPoint x="420" y="530" as="sourcePoint" />
            <mxPoint x="889.5" y="530" as="targetPoint" />
            <mxPoint as="offset" />
          </mxGeometry>
        </mxCell>
        <mxCell id="70oapY4QyX1JeO2lNhkM-22" value="缓存旁路" style="text;html=1;align=center;verticalAlign=middle;whiteSpace=wrap;rounded=0;" parent="1" vertex="1">
          <mxGeometry x="540" y="40" width="60" height="30" as="geometry" />
        </mxCell>
        <mxCell id="70oapY4QyX1JeO2lNhkM-23" value="客户端" style="shape=umlLifeline;perimeter=lifelinePerimeter;whiteSpace=wrap;html=1;container=1;dropTarget=0;collapsible=0;recursiveResize=0;outlineConnect=0;portConstraint=eastwest;newEdgeStyle={&quot;curved&quot;:0,&quot;rounded&quot;:0};" parent="1" vertex="1">
          <mxGeometry x="1310" y="110" width="100" height="510" as="geometry" />
        </mxCell>
        <mxCell id="70oapY4QyX1JeO2lNhkM-24" value="缓存层代理" style="shape=umlLifeline;perimeter=lifelinePerimeter;whiteSpace=wrap;html=1;container=1;dropTarget=0;collapsible=0;recursiveResize=0;outlineConnect=0;portConstraint=eastwest;newEdgeStyle={&quot;curved&quot;:0,&quot;rounded&quot;:0};" parent="1" vertex="1">
          <mxGeometry x="1550" y="110" width="100" height="510" as="geometry" />
        </mxCell>
        <mxCell id="70oapY4QyX1JeO2lNhkM-25" value="redis" style="shape=umlLifeline;perimeter=lifelinePerimeter;whiteSpace=wrap;html=1;container=1;dropTarget=0;collapsible=0;recursiveResize=0;outlineConnect=0;portConstraint=eastwest;newEdgeStyle={&quot;curved&quot;:0,&quot;rounded&quot;:0};" parent="1" vertex="1">
          <mxGeometry x="1780" y="110" width="100" height="510" as="geometry" />
        </mxCell>
        <mxCell id="70oapY4QyX1JeO2lNhkM-26" value="数据库" style="shape=umlLifeline;perimeter=lifelinePerimeter;whiteSpace=wrap;html=1;container=1;dropTarget=0;collapsible=0;recursiveResize=0;outlineConnect=0;portConstraint=eastwest;newEdgeStyle={&quot;curved&quot;:0,&quot;rounded&quot;:0};" parent="1" vertex="1">
          <mxGeometry x="2020" y="110" width="100" height="510" as="geometry" />
        </mxCell>
        <mxCell id="70oapY4QyX1JeO2lNhkM-33" value="读穿透" style="text;html=1;align=center;verticalAlign=middle;whiteSpace=wrap;rounded=0;" parent="1" vertex="1">
          <mxGeometry x="1720" y="40" width="60" height="30" as="geometry" />
        </mxCell>
        <mxCell id="70oapY4QyX1JeO2lNhkM-39" value="客户端" style="shape=umlLifeline;perimeter=lifelinePerimeter;whiteSpace=wrap;html=1;container=1;dropTarget=0;collapsible=0;recursiveResize=0;outlineConnect=0;portConstraint=eastwest;newEdgeStyle={&quot;curved&quot;:0,&quot;rounded&quot;:0};" parent="1" vertex="1">
          <mxGeometry x="2530" y="110" width="100" height="510" as="geometry" />
        </mxCell>
        <mxCell id="70oapY4QyX1JeO2lNhkM-40" value="缓存层代理" style="shape=umlLifeline;perimeter=lifelinePerimeter;whiteSpace=wrap;html=1;container=1;dropTarget=0;collapsible=0;recursiveResize=0;outlineConnect=0;portConstraint=eastwest;newEdgeStyle={&quot;curved&quot;:0,&quot;rounded&quot;:0};" parent="1" vertex="1">
          <mxGeometry x="2770" y="110" width="100" height="510" as="geometry" />
        </mxCell>
        <mxCell id="70oapY4QyX1JeO2lNhkM-41" value="redis" style="shape=umlLifeline;perimeter=lifelinePerimeter;whiteSpace=wrap;html=1;container=1;dropTarget=0;collapsible=0;recursiveResize=0;outlineConnect=0;portConstraint=eastwest;newEdgeStyle={&quot;curved&quot;:0,&quot;rounded&quot;:0};" parent="1" vertex="1">
          <mxGeometry x="3000" y="110" width="100" height="510" as="geometry" />
        </mxCell>
        <mxCell id="70oapY4QyX1JeO2lNhkM-42" value="数据库" style="shape=umlLifeline;perimeter=lifelinePerimeter;whiteSpace=wrap;html=1;container=1;dropTarget=0;collapsible=0;recursiveResize=0;outlineConnect=0;portConstraint=eastwest;newEdgeStyle={&quot;curved&quot;:0,&quot;rounded&quot;:0};" parent="1" vertex="1">
          <mxGeometry x="3240" y="110" width="100" height="510" as="geometry" />
        </mxCell>
        <mxCell id="70oapY4QyX1JeO2lNhkM-43" value="写穿透" style="text;html=1;align=center;verticalAlign=middle;whiteSpace=wrap;rounded=0;" parent="1" vertex="1">
          <mxGeometry x="2940" y="40" width="60" height="30" as="geometry" />
        </mxCell>
        <mxCell id="70oapY4QyX1JeO2lNhkM-44" value="读数据" style="html=1;verticalAlign=bottom;startArrow=oval;startFill=1;endArrow=block;startSize=8;curved=0;rounded=0;" parent="1" edge="1">
          <mxGeometry width="60" relative="1" as="geometry">
            <mxPoint x="1360" y="210" as="sourcePoint" />
            <mxPoint x="1599.5" y="210" as="targetPoint" />
          </mxGeometry>
        </mxCell>
        <mxCell id="70oapY4QyX1JeO2lNhkM-45" value="命中缓存" style="html=1;verticalAlign=bottom;startArrow=oval;startFill=1;endArrow=block;startSize=8;curved=0;rounded=0;" parent="1" edge="1">
          <mxGeometry width="60" relative="1" as="geometry">
            <mxPoint x="1600" y="250" as="sourcePoint" />
            <mxPoint x="1829.5" y="250" as="targetPoint" />
          </mxGeometry>
        </mxCell>
        <mxCell id="70oapY4QyX1JeO2lNhkM-46" value="返回缓存数据" style="html=1;verticalAlign=bottom;endArrow=open;dashed=1;endSize=8;curved=0;rounded=0;" parent="1" edge="1">
          <mxGeometry x="0.0022" relative="1" as="geometry">
            <mxPoint x="1830" y="320" as="sourcePoint" />
            <mxPoint x="1599.3888888888887" y="320" as="targetPoint" />
            <mxPoint as="offset" />
          </mxGeometry>
        </mxCell>
        <mxCell id="70oapY4QyX1JeO2lNhkM-47" value="返回缓存数据" style="html=1;verticalAlign=bottom;endArrow=open;dashed=1;endSize=8;curved=0;rounded=0;" parent="1" edge="1">
          <mxGeometry x="0.0022" relative="1" as="geometry">
            <mxPoint x="1601" y="360" as="sourcePoint" />
            <mxPoint x="1359.3888888888887" y="360" as="targetPoint" />
            <mxPoint as="offset" />
          </mxGeometry>
        </mxCell>
        <mxCell id="70oapY4QyX1JeO2lNhkM-48" value="读数据" style="html=1;verticalAlign=bottom;startArrow=oval;startFill=1;endArrow=block;startSize=8;curved=0;rounded=0;" parent="1" edge="1">
          <mxGeometry width="60" relative="1" as="geometry">
            <mxPoint x="1360" y="450" as="sourcePoint" />
            <mxPoint x="1600" y="450" as="targetPoint" />
          </mxGeometry>
        </mxCell>
        <mxCell id="70oapY4QyX1JeO2lNhkM-49" value="未命中缓存" style="html=1;verticalAlign=bottom;startArrow=oval;startFill=1;endArrow=block;startSize=8;curved=0;rounded=0;" parent="1" edge="1">
          <mxGeometry width="60" relative="1" as="geometry">
            <mxPoint x="1600" y="480" as="sourcePoint" />
            <mxPoint x="1830" y="480" as="targetPoint" />
          </mxGeometry>
        </mxCell>
        <mxCell id="70oapY4QyX1JeO2lNhkM-50" value="查询数据库" style="html=1;verticalAlign=bottom;startArrow=oval;startFill=1;endArrow=block;startSize=8;curved=0;rounded=0;" parent="1" edge="1">
          <mxGeometry width="60" relative="1" as="geometry">
            <mxPoint x="1830" y="510" as="sourcePoint" />
            <mxPoint x="2069.5" y="510" as="targetPoint" />
          </mxGeometry>
        </mxCell>
        <mxCell id="70oapY4QyX1JeO2lNhkM-51" value="回种缓存" style="html=1;verticalAlign=bottom;endArrow=open;dashed=1;endSize=8;curved=0;rounded=0;" parent="1" edge="1">
          <mxGeometry x="0.0022" relative="1" as="geometry">
            <mxPoint x="2071" y="560" as="sourcePoint" />
            <mxPoint x="1829.3888888888887" y="560" as="targetPoint" />
            <mxPoint as="offset" />
          </mxGeometry>
        </mxCell>
        <mxCell id="70oapY4QyX1JeO2lNhkM-52" value="返回结果" style="html=1;verticalAlign=bottom;endArrow=open;dashed=1;endSize=8;curved=0;rounded=0;" parent="1" edge="1">
          <mxGeometry x="0.0022" relative="1" as="geometry">
            <mxPoint x="1831" y="580" as="sourcePoint" />
            <mxPoint x="1600" y="580" as="targetPoint" />
            <mxPoint as="offset" />
          </mxGeometry>
        </mxCell>
        <mxCell id="70oapY4QyX1JeO2lNhkM-53" value="返回数据" style="html=1;verticalAlign=bottom;endArrow=open;dashed=1;endSize=8;curved=0;rounded=0;" parent="1" edge="1">
          <mxGeometry x="0.0022" relative="1" as="geometry">
            <mxPoint x="1601.61" y="610" as="sourcePoint" />
            <mxPoint x="1359.9988888888886" y="610" as="targetPoint" />
            <mxPoint as="offset" />
          </mxGeometry>
        </mxCell>
        <mxCell id="70oapY4QyX1JeO2lNhkM-54" value="更新操作" style="html=1;verticalAlign=bottom;startArrow=oval;startFill=1;endArrow=block;startSize=8;curved=0;rounded=0;" parent="1" target="70oapY4QyX1JeO2lNhkM-40" edge="1">
          <mxGeometry width="60" relative="1" as="geometry">
            <mxPoint x="2580" y="240" as="sourcePoint" />
            <mxPoint x="2640" y="240" as="targetPoint" />
          </mxGeometry>
        </mxCell>
        <mxCell id="70oapY4QyX1JeO2lNhkM-55" value="更新数据库" style="html=1;verticalAlign=bottom;startArrow=oval;startFill=1;endArrow=block;startSize=8;curved=0;rounded=0;" parent="1" target="70oapY4QyX1JeO2lNhkM-42" edge="1">
          <mxGeometry width="60" relative="1" as="geometry">
            <mxPoint x="2820" y="300" as="sourcePoint" />
            <mxPoint x="3060" y="300" as="targetPoint" />
          </mxGeometry>
        </mxCell>
        <mxCell id="70oapY4QyX1JeO2lNhkM-56" value="回种更新结果至缓存" style="html=1;verticalAlign=bottom;endArrow=open;dashed=1;endSize=8;curved=0;rounded=0;" parent="1" target="70oapY4QyX1JeO2lNhkM-41" edge="1">
          <mxGeometry relative="1" as="geometry">
            <mxPoint x="3290" y="380" as="sourcePoint" />
            <mxPoint x="3210" y="380" as="targetPoint" />
          </mxGeometry>
        </mxCell>
        <mxCell id="70oapY4QyX1JeO2lNhkM-57" value="return" style="html=1;verticalAlign=bottom;endArrow=open;dashed=1;endSize=8;curved=0;rounded=0;" parent="1" target="70oapY4QyX1JeO2lNhkM-40" edge="1">
          <mxGeometry relative="1" as="geometry">
            <mxPoint x="3050" y="440" as="sourcePoint" />
            <mxPoint x="2970" y="440" as="targetPoint" />
          </mxGeometry>
        </mxCell>
        <mxCell id="70oapY4QyX1JeO2lNhkM-58" value="return" style="html=1;verticalAlign=bottom;endArrow=open;dashed=1;endSize=8;curved=0;rounded=0;" parent="1" target="70oapY4QyX1JeO2lNhkM-39" edge="1">
          <mxGeometry relative="1" as="geometry">
            <mxPoint x="2821" y="480" as="sourcePoint" />
            <mxPoint x="2590" y="480" as="targetPoint" />
          </mxGeometry>
        </mxCell>
        <mxCell id="70oapY4QyX1JeO2lNhkM-59" value="客户端" style="shape=umlLifeline;perimeter=lifelinePerimeter;whiteSpace=wrap;html=1;container=1;dropTarget=0;collapsible=0;recursiveResize=0;outlineConnect=0;portConstraint=eastwest;newEdgeStyle={&quot;curved&quot;:0,&quot;rounded&quot;:0};" parent="1" vertex="1">
          <mxGeometry x="3610" y="110" width="100" height="510" as="geometry" />
        </mxCell>
        <mxCell id="70oapY4QyX1JeO2lNhkM-60" value="缓存层代理" style="shape=umlLifeline;perimeter=lifelinePerimeter;whiteSpace=wrap;html=1;container=1;dropTarget=0;collapsible=0;recursiveResize=0;outlineConnect=0;portConstraint=eastwest;newEdgeStyle={&quot;curved&quot;:0,&quot;rounded&quot;:0};" parent="1" vertex="1">
          <mxGeometry x="4010" y="110" width="100" height="510" as="geometry" />
        </mxCell>
        <mxCell id="70oapY4QyX1JeO2lNhkM-69" value="" style="html=1;points=[[0,0,0,0,5],[0,1,0,0,-5],[1,0,0,0,5],[1,1,0,0,-5]];perimeter=orthogonalPerimeter;outlineConnect=0;targetShapes=umlLifeline;portConstraint=eastwest;newEdgeStyle={&quot;curved&quot;:0,&quot;rounded&quot;:0};" parent="70oapY4QyX1JeO2lNhkM-60" vertex="1">
          <mxGeometry x="45" y="170" width="10" height="40" as="geometry" />
        </mxCell>
        <mxCell id="70oapY4QyX1JeO2lNhkM-70" value="更新缓存，异步队列累计写操作" style="html=1;align=left;spacingLeft=2;endArrow=block;rounded=0;edgeStyle=orthogonalEdgeStyle;curved=0;rounded=0;" parent="70oapY4QyX1JeO2lNhkM-60" target="70oapY4QyX1JeO2lNhkM-69" edge="1">
          <mxGeometry relative="1" as="geometry">
            <mxPoint x="50" y="150" as="sourcePoint" />
            <Array as="points">
              <mxPoint x="80" y="180" />
            </Array>
          </mxGeometry>
        </mxCell>
        <mxCell id="70oapY4QyX1JeO2lNhkM-62" value="数据库" style="shape=umlLifeline;perimeter=lifelinePerimeter;whiteSpace=wrap;html=1;container=1;dropTarget=0;collapsible=0;recursiveResize=0;outlineConnect=0;portConstraint=eastwest;newEdgeStyle={&quot;curved&quot;:0,&quot;rounded&quot;:0};" parent="1" vertex="1">
          <mxGeometry x="4320" y="110" width="100" height="510" as="geometry" />
        </mxCell>
        <mxCell id="70oapY4QyX1JeO2lNhkM-63" value="写回操作" style="text;html=1;align=center;verticalAlign=middle;whiteSpace=wrap;rounded=0;" parent="1" vertex="1">
          <mxGeometry x="4020" y="40" width="60" height="30" as="geometry" />
        </mxCell>
        <mxCell id="70oapY4QyX1JeO2lNhkM-64" value="更新操作请求" style="html=1;verticalAlign=bottom;startArrow=oval;startFill=1;endArrow=block;startSize=8;curved=0;rounded=0;" parent="1" target="70oapY4QyX1JeO2lNhkM-60" edge="1">
          <mxGeometry width="60" relative="1" as="geometry">
            <mxPoint x="3660" y="240" as="sourcePoint" />
            <mxPoint x="3720" y="240" as="targetPoint" />
          </mxGeometry>
        </mxCell>
        <mxCell id="70oapY4QyX1JeO2lNhkM-71" value="立即响应成功" style="html=1;verticalAlign=bottom;endArrow=open;dashed=1;endSize=8;curved=0;rounded=0;" parent="1" target="70oapY4QyX1JeO2lNhkM-59" edge="1">
          <mxGeometry relative="1" as="geometry">
            <mxPoint x="4060" y="360" as="sourcePoint" />
            <mxPoint x="3980" y="360" as="targetPoint" />
          </mxGeometry>
        </mxCell>
        <mxCell id="70oapY4QyX1JeO2lNhkM-74" value="批量更新数据库" style="html=1;verticalAlign=bottom;startArrow=oval;startFill=1;endArrow=block;startSize=8;curved=0;rounded=0;" parent="1" edge="1">
          <mxGeometry width="60" relative="1" as="geometry">
            <mxPoint x="4060" y="520" as="sourcePoint" />
            <mxPoint x="4369.500000000001" y="520" as="targetPoint" />
          </mxGeometry>
        </mxCell>
        <mxCell id="70oapY4QyX1JeO2lNhkM-75" value="loop" style="shape=umlFrame;whiteSpace=wrap;html=1;pointerEvents=0;" parent="1" vertex="1">
          <mxGeometry x="4040" y="430" width="360" height="120" as="geometry" />
        </mxCell>
        <mxCell id="70oapY4QyX1JeO2lNhkM-76" value="批量操作" style="text;html=1;align=center;verticalAlign=middle;resizable=0;points=[];autosize=1;strokeColor=none;fillColor=none;" parent="1" vertex="1">
          <mxGeometry x="4185" y="430" width="70" height="30" as="geometry" />
        </mxCell>
        <mxCell id="70oapY4QyX1JeO2lNhkM-77" value="请求A" style="shape=umlLifeline;perimeter=lifelinePerimeter;whiteSpace=wrap;html=1;container=1;dropTarget=0;collapsible=0;recursiveResize=0;outlineConnect=0;portConstraint=eastwest;newEdgeStyle={&quot;curved&quot;:0,&quot;rounded&quot;:0};" parent="1" vertex="1">
          <mxGeometry x="130" y="790" width="100" height="750" as="geometry" />
        </mxCell>
        <mxCell id="70oapY4QyX1JeO2lNhkM-78" value="请求B" style="shape=umlLifeline;perimeter=lifelinePerimeter;whiteSpace=wrap;html=1;container=1;dropTarget=0;collapsible=0;recursiveResize=0;outlineConnect=0;portConstraint=eastwest;newEdgeStyle={&quot;curved&quot;:0,&quot;rounded&quot;:0};" parent="1" vertex="1">
          <mxGeometry x="370" y="790" width="100" height="750" as="geometry" />
        </mxCell>
        <mxCell id="70oapY4QyX1JeO2lNhkM-79" value="redis" style="shape=umlLifeline;perimeter=lifelinePerimeter;whiteSpace=wrap;html=1;container=1;dropTarget=0;collapsible=0;recursiveResize=0;outlineConnect=0;portConstraint=eastwest;newEdgeStyle={&quot;curved&quot;:0,&quot;rounded&quot;:0};" parent="1" vertex="1">
          <mxGeometry x="600" y="790" width="100" height="750" as="geometry" />
        </mxCell>
        <mxCell id="70oapY4QyX1JeO2lNhkM-80" value="数据库" style="shape=umlLifeline;perimeter=lifelinePerimeter;whiteSpace=wrap;html=1;container=1;dropTarget=0;collapsible=0;recursiveResize=0;outlineConnect=0;portConstraint=eastwest;newEdgeStyle={&quot;curved&quot;:0,&quot;rounded&quot;:0};" parent="1" vertex="1">
          <mxGeometry x="840" y="790" width="100" height="750" as="geometry" />
        </mxCell>
        <mxCell id="70oapY4QyX1JeO2lNhkM-81" value="8、查询缓存命中X=10" style="html=1;verticalAlign=bottom;startArrow=oval;startFill=1;endArrow=block;startSize=8;curved=0;rounded=0;fillColor=#d80073;strokeColor=#A50040;" parent="1" edge="1">
          <mxGeometry width="60" relative="1" as="geometry">
            <mxPoint x="420" y="1234.38" as="sourcePoint" />
            <mxPoint x="649.5" y="1234.3800000000003" as="targetPoint" />
          </mxGeometry>
        </mxCell>
        <mxCell id="70oapY4QyX1JeO2lNhkM-82" value="7、更新数据库X=20" style="html=1;verticalAlign=bottom;startArrow=oval;startFill=1;endArrow=block;startSize=8;curved=0;rounded=0;" parent="1" edge="1">
          <mxGeometry x="0.7195" width="60" relative="1" as="geometry">
            <mxPoint x="180" y="1120" as="sourcePoint" />
            <mxPoint x="889.5" y="1120.0000000000002" as="targetPoint" />
            <mxPoint as="offset" />
          </mxGeometry>
        </mxCell>
        <mxCell id="70oapY4QyX1JeO2lNhkM-83" value="9、删除缓存" style="html=1;verticalAlign=bottom;startArrow=oval;startFill=1;endArrow=block;startSize=8;curved=0;rounded=0;" parent="1" edge="1">
          <mxGeometry x="0.5335" y="10" width="60" relative="1" as="geometry">
            <mxPoint x="180" y="1370" as="sourcePoint" />
            <mxPoint x="649.5" y="1370.0000000000002" as="targetPoint" />
            <mxPoint as="offset" />
          </mxGeometry>
        </mxCell>
        <mxCell id="70oapY4QyX1JeO2lNhkM-84" value="10、查询缓存未命中" style="html=1;verticalAlign=bottom;startArrow=oval;startFill=1;endArrow=block;startSize=8;curved=0;rounded=0;fillColor=#d80073;strokeColor=#A50040;" parent="1" edge="1">
          <mxGeometry width="60" relative="1" as="geometry">
            <mxPoint x="420" y="1430" as="sourcePoint" />
            <mxPoint x="649.5" y="1430.0000000000002" as="targetPoint" />
          </mxGeometry>
        </mxCell>
        <mxCell id="70oapY4QyX1JeO2lNhkM-85" value="11、查询数据库X=20" style="html=1;verticalAlign=bottom;startArrow=oval;startFill=1;endArrow=block;startSize=8;curved=0;rounded=0;fillColor=#d80073;strokeColor=#A50040;" parent="1" edge="1">
          <mxGeometry x="0.5335" y="10" width="60" relative="1" as="geometry">
            <mxPoint x="420" y="1480" as="sourcePoint" />
            <mxPoint x="889.5" y="1480" as="targetPoint" />
            <mxPoint as="offset" />
          </mxGeometry>
        </mxCell>
        <mxCell id="70oapY4QyX1JeO2lNhkM-87" value="延迟双删" style="text;html=1;align=center;verticalAlign=middle;whiteSpace=wrap;rounded=0;" parent="1" vertex="1">
          <mxGeometry x="500" y="750" width="60" height="30" as="geometry" />
        </mxCell>
        <mxCell id="70oapY4QyX1JeO2lNhkM-88" value="1、删除缓存" style="html=1;verticalAlign=bottom;startArrow=oval;startFill=1;endArrow=block;startSize=8;curved=0;rounded=0;" parent="1" target="70oapY4QyX1JeO2lNhkM-79" edge="1">
          <mxGeometry width="60" relative="1" as="geometry">
            <mxPoint x="180" y="910" as="sourcePoint" />
            <mxPoint x="240" y="910" as="targetPoint" />
          </mxGeometry>
        </mxCell>
        <mxCell id="70oapY4QyX1JeO2lNhkM-89" value="2、查询缓存未命中" style="html=1;verticalAlign=bottom;startArrow=oval;startFill=1;endArrow=block;startSize=8;curved=0;rounded=0;fillColor=#d80073;strokeColor=#A50040;" parent="1" edge="1">
          <mxGeometry width="60" relative="1" as="geometry">
            <mxPoint x="420" y="960" as="sourcePoint" />
            <mxPoint x="649.5" y="960.0000000000002" as="targetPoint" />
          </mxGeometry>
        </mxCell>
        <mxCell id="70oapY4QyX1JeO2lNhkM-90" value="6、回种数据到缓存" style="html=1;verticalAlign=bottom;endArrow=open;dashed=1;endSize=8;curved=0;rounded=0;fillColor=#d80073;strokeColor=#A50040;" parent="1" target="70oapY4QyX1JeO2lNhkM-3" edge="1">
          <mxGeometry relative="1" as="geometry">
            <mxPoint x="890" y="590" as="sourcePoint" />
            <mxPoint x="810" y="590" as="targetPoint" />
          </mxGeometry>
        </mxCell>
        <mxCell id="70oapY4QyX1JeO2lNhkM-91" value="3、查询数据库X=10" style="html=1;verticalAlign=bottom;startArrow=oval;startFill=1;endArrow=block;startSize=8;curved=0;rounded=0;fillColor=#d80073;strokeColor=#A50040;" parent="1" edge="1">
          <mxGeometry x="0.5335" y="10" width="60" relative="1" as="geometry">
            <mxPoint x="420" y="1010" as="sourcePoint" />
            <mxPoint x="889.5" y="1010" as="targetPoint" />
            <mxPoint as="offset" />
          </mxGeometry>
        </mxCell>
        <mxCell id="70oapY4QyX1JeO2lNhkM-93" value="6、回种数据到缓存X=10" style="html=1;verticalAlign=bottom;endArrow=open;dashed=1;endSize=8;curved=0;rounded=0;fillColor=#d80073;strokeColor=#A50040;" parent="1" edge="1">
          <mxGeometry relative="1" as="geometry">
            <mxPoint x="891" y="1060" as="sourcePoint" />
            <mxPoint x="650" y="1060" as="targetPoint" />
          </mxGeometry>
        </mxCell>
        <mxCell id="70oapY4QyX1JeO2lNhkM-94" value="延迟ns" style="text;html=1;align=center;verticalAlign=middle;resizable=0;points=[];autosize=1;strokeColor=none;fillColor=none;" parent="1" vertex="1">
          <mxGeometry x="220" y="1220" width="60" height="30" as="geometry" />
        </mxCell>
        <mxCell id="70oapY4QyX1JeO2lNhkM-95" value="12、回种数据到缓存X=20" style="html=1;verticalAlign=bottom;endArrow=open;dashed=1;endSize=8;curved=0;rounded=0;fillColor=#d80073;strokeColor=#A50040;" parent="1" edge="1">
          <mxGeometry relative="1" as="geometry">
            <mxPoint x="891" y="1520" as="sourcePoint" />
            <mxPoint x="650" y="1520" as="targetPoint" />
          </mxGeometry>
        </mxCell>
        <mxCell id="70oapY4QyX1JeO2lNhkM-106" value="客户端" style="shape=umlLifeline;perimeter=lifelinePerimeter;whiteSpace=wrap;html=1;container=1;dropTarget=0;collapsible=0;recursiveResize=0;outlineConnect=0;portConstraint=eastwest;newEdgeStyle={&quot;curved&quot;:0,&quot;rounded&quot;:0};" parent="1" vertex="1">
          <mxGeometry x="1340" y="820" width="100" height="510" as="geometry" />
        </mxCell>
        <mxCell id="70oapY4QyX1JeO2lNhkM-107" value="数据库" style="shape=umlLifeline;perimeter=lifelinePerimeter;whiteSpace=wrap;html=1;container=1;dropTarget=0;collapsible=0;recursiveResize=0;outlineConnect=0;portConstraint=eastwest;newEdgeStyle={&quot;curved&quot;:0,&quot;rounded&quot;:0};" parent="1" vertex="1">
          <mxGeometry x="1580" y="820" width="100" height="510" as="geometry" />
        </mxCell>
        <mxCell id="70oapY4QyX1JeO2lNhkM-108" value="Canal" style="shape=umlLifeline;perimeter=lifelinePerimeter;whiteSpace=wrap;html=1;container=1;dropTarget=0;collapsible=0;recursiveResize=0;outlineConnect=0;portConstraint=eastwest;newEdgeStyle={&quot;curved&quot;:0,&quot;rounded&quot;:0};" parent="1" vertex="1">
          <mxGeometry x="1810" y="820" width="100" height="510" as="geometry" />
        </mxCell>
        <mxCell id="70oapY4QyX1JeO2lNhkM-109" value="消息队列" style="shape=umlLifeline;perimeter=lifelinePerimeter;whiteSpace=wrap;html=1;container=1;dropTarget=0;collapsible=0;recursiveResize=0;outlineConnect=0;portConstraint=eastwest;newEdgeStyle={&quot;curved&quot;:0,&quot;rounded&quot;:0};" parent="1" vertex="1">
          <mxGeometry x="2050" y="820" width="100" height="510" as="geometry" />
        </mxCell>
        <mxCell id="70oapY4QyX1JeO2lNhkM-110" value="BinLog监控" style="text;html=1;align=center;verticalAlign=middle;whiteSpace=wrap;rounded=0;" parent="1" vertex="1">
          <mxGeometry x="1820" y="730" width="80" height="20" as="geometry" />
        </mxCell>
        <mxCell id="70oapY4QyX1JeO2lNhkM-111" value="更新操作" style="html=1;verticalAlign=bottom;startArrow=oval;startFill=1;endArrow=block;startSize=8;curved=0;rounded=0;" parent="1" target="70oapY4QyX1JeO2lNhkM-107" edge="1">
          <mxGeometry width="60" relative="1" as="geometry">
            <mxPoint x="1390" y="950" as="sourcePoint" />
            <mxPoint x="1450" y="950" as="targetPoint" />
          </mxGeometry>
        </mxCell>
        <mxCell id="70oapY4QyX1JeO2lNhkM-119" value="redis" style="shape=umlLifeline;perimeter=lifelinePerimeter;whiteSpace=wrap;html=1;container=1;dropTarget=0;collapsible=0;recursiveResize=0;outlineConnect=0;portConstraint=eastwest;newEdgeStyle={&quot;curved&quot;:0,&quot;rounded&quot;:0};" parent="1" vertex="1">
          <mxGeometry x="2260" y="820" width="100" height="510" as="geometry" />
        </mxCell>
        <mxCell id="70oapY4QyX1JeO2lNhkM-124" value="" style="html=1;points=[[0,0,0,0,5],[0,1,0,0,-5],[1,0,0,0,5],[1,1,0,0,-5]];perimeter=orthogonalPerimeter;outlineConnect=0;targetShapes=umlLifeline;portConstraint=eastwest;newEdgeStyle={&quot;curved&quot;:0,&quot;rounded&quot;:0};" parent="70oapY4QyX1JeO2lNhkM-119" vertex="1">
          <mxGeometry x="45" y="340" width="10" height="40" as="geometry" />
        </mxCell>
        <mxCell id="70oapY4QyX1JeO2lNhkM-125" value="更新缓存" style="html=1;align=left;spacingLeft=2;endArrow=block;rounded=0;edgeStyle=orthogonalEdgeStyle;curved=0;rounded=0;" parent="70oapY4QyX1JeO2lNhkM-119" target="70oapY4QyX1JeO2lNhkM-124" edge="1">
          <mxGeometry relative="1" as="geometry">
            <mxPoint x="50" y="320" as="sourcePoint" />
            <Array as="points">
              <mxPoint x="80" y="350" />
            </Array>
          </mxGeometry>
        </mxCell>
        <mxCell id="70oapY4QyX1JeO2lNhkM-121" value="监听BinLog日志" style="html=1;verticalAlign=bottom;startArrow=oval;startFill=1;endArrow=block;startSize=8;curved=0;rounded=0;" parent="1" target="70oapY4QyX1JeO2lNhkM-107" edge="1">
          <mxGeometry width="60" relative="1" as="geometry">
            <mxPoint x="1860" y="1000" as="sourcePoint" />
            <mxPoint x="1920" y="1000" as="targetPoint" />
          </mxGeometry>
        </mxCell>
        <mxCell id="70oapY4QyX1JeO2lNhkM-122" value="更新请求入消息队列" style="html=1;verticalAlign=bottom;startArrow=oval;startFill=1;endArrow=block;startSize=8;curved=0;rounded=0;" parent="1" target="70oapY4QyX1JeO2lNhkM-109" edge="1">
          <mxGeometry width="60" relative="1" as="geometry">
            <mxPoint x="1860" y="1040" as="sourcePoint" />
            <mxPoint x="1920" y="1040" as="targetPoint" />
          </mxGeometry>
        </mxCell>
        <mxCell id="70oapY4QyX1JeO2lNhkM-123" value="顺序消费队列（重试机制）" style="html=1;verticalAlign=bottom;startArrow=oval;startFill=1;endArrow=block;startSize=8;curved=0;rounded=0;" parent="1" target="70oapY4QyX1JeO2lNhkM-119" edge="1">
          <mxGeometry width="60" relative="1" as="geometry">
            <mxPoint x="2100" y="1090" as="sourcePoint" />
            <mxPoint x="2160" y="1090" as="targetPoint" />
          </mxGeometry>
        </mxCell>
        <mxCell id="70oapY4QyX1JeO2lNhkM-128" value="web应用" style="rounded=0;whiteSpace=wrap;html=1;" parent="1" vertex="1">
          <mxGeometry x="2630" y="802" width="470" height="50" as="geometry" />
        </mxCell>
        <mxCell id="70oapY4QyX1JeO2lNhkM-129" value="" style="points=[];aspect=fixed;html=1;align=center;shadow=0;dashed=0;fillColor=#FF6A00;strokeColor=none;shape=mxgraph.alibaba_cloud.redis_kvstore;" parent="1" vertex="1">
          <mxGeometry x="2680" y="940" width="126.8" height="100" as="geometry" />
        </mxCell>
        <mxCell id="70oapY4QyX1JeO2lNhkM-130" value="redis" style="text;html=1;align=center;verticalAlign=middle;resizable=0;points=[];autosize=1;strokeColor=none;fillColor=none;" parent="1" vertex="1">
          <mxGeometry x="2630" y="995" width="50" height="30" as="geometry" />
        </mxCell>
        <mxCell id="70oapY4QyX1JeO2lNhkM-131" value="数据库" style="rounded=0;whiteSpace=wrap;html=1;" parent="1" vertex="1">
          <mxGeometry x="2620" y="1130" width="470" height="50" as="geometry" />
        </mxCell>
        <mxCell id="70oapY4QyX1JeO2lNhkM-138" value="" style="endArrow=classic;html=1;rounded=0;exitX=0.185;exitY=0.95;exitDx=0;exitDy=0;exitPerimeter=0;entryX=0.29;entryY=0.08;entryDx=0;entryDy=0;entryPerimeter=0;" parent="1" source="70oapY4QyX1JeO2lNhkM-128" target="70oapY4QyX1JeO2lNhkM-129" edge="1">
          <mxGeometry width="50" height="50" relative="1" as="geometry">
            <mxPoint x="2560" y="940" as="sourcePoint" />
            <mxPoint x="2610" y="890" as="targetPoint" />
          </mxGeometry>
        </mxCell>
        <mxCell id="70oapY4QyX1JeO2lNhkM-139" value="" style="endArrow=open;endSize=12;dashed=1;html=1;rounded=0;exitX=0.668;exitY=0.075;exitDx=0;exitDy=0;exitPerimeter=0;entryX=0.289;entryY=0.96;entryDx=0;entryDy=0;entryPerimeter=0;" parent="1" source="70oapY4QyX1JeO2lNhkM-129" target="70oapY4QyX1JeO2lNhkM-128" edge="1">
          <mxGeometry width="160" relative="1" as="geometry">
            <mxPoint x="2690" y="1010" as="sourcePoint" />
            <mxPoint x="2850" y="1010" as="targetPoint" />
          </mxGeometry>
        </mxCell>
        <mxCell id="70oapY4QyX1JeO2lNhkM-140" value="" style="endArrow=block;endFill=1;html=1;edgeStyle=orthogonalEdgeStyle;align=left;verticalAlign=top;rounded=0;exitX=0.615;exitY=1.06;exitDx=0;exitDy=0;exitPerimeter=0;entryX=0.638;entryY=0.07;entryDx=0;entryDy=0;entryPerimeter=0;" parent="1" edge="1">
          <mxGeometry x="-1" relative="1" as="geometry">
            <mxPoint x="2969.5900000000006" y="852" as="sourcePoint" />
            <mxPoint x="2970.4" y="1130.5" as="targetPoint" />
          </mxGeometry>
        </mxCell>
        <mxCell id="70oapY4QyX1JeO2lNhkM-143" value="" style="html=1;verticalAlign=bottom;endArrow=open;dashed=1;endSize=8;curved=0;rounded=0;exitX=0.892;exitY=-0.06;exitDx=0;exitDy=0;exitPerimeter=0;entryX=0.871;entryY=0.96;entryDx=0;entryDy=0;entryPerimeter=0;" parent="1" source="70oapY4QyX1JeO2lNhkM-131" target="70oapY4QyX1JeO2lNhkM-128" edge="1">
          <mxGeometry relative="1" as="geometry">
            <mxPoint x="3070" y="1040" as="sourcePoint" />
            <mxPoint x="2990" y="1040" as="targetPoint" />
          </mxGeometry>
        </mxCell>
        <mxCell id="70oapY4QyX1JeO2lNhkM-144" value="热点key突然失效或者&lt;div&gt;不在缓存&lt;/div&gt;" style="text;html=1;align=center;verticalAlign=middle;resizable=0;points=[];autosize=1;strokeColor=none;fillColor=none;" parent="1" vertex="1">
          <mxGeometry x="2570" y="893" width="140" height="40" as="geometry" />
        </mxCell>
        <mxCell id="70oapY4QyX1JeO2lNhkM-145" value="海量请求打到&lt;div&gt;数据库&lt;/div&gt;" style="text;html=1;align=center;verticalAlign=middle;resizable=0;points=[];autosize=1;strokeColor=none;fillColor=none;" parent="1" vertex="1">
          <mxGeometry x="3030" y="913" width="100" height="40" as="geometry" />
        </mxCell>
        <mxCell id="70oapY4QyX1JeO2lNhkM-146" value="缓存击穿" style="text;html=1;align=center;verticalAlign=middle;resizable=0;points=[];autosize=1;strokeColor=none;fillColor=none;" parent="1" vertex="1">
          <mxGeometry x="2830" y="760" width="70" height="30" as="geometry" />
        </mxCell>
        <mxCell id="5kVdmZHk7mnafqg9LZaO-1" value="" style="whiteSpace=wrap;html=1;aspect=fixed;" parent="1" vertex="1">
          <mxGeometry x="3580" y="893" width="80" height="80" as="geometry" />
        </mxCell>
      </root>
    </mxGraphModel>
  </diagram>
</mxfile>
